#!OML:ASF G:\JayActor3\Patient Classification 1\Patient 1\Session 5\male.ASF
:FULLY-SPECIFIED
:DEGREES
1230
root -31.9801 16.9583 -4.89586 -391.427 85.049 -391.463
lowerback -0.233487 -0.106786 2.12764
upperback 1.3095 -0.145847 -0.964382
thorax 1.46524 -0.0383283 -2.18402
lowerneck -7.75167 0.114179 2.2915
upperneck 14.8011 -0.218821 1.32954
head 5.74852 0.176331 0.0303534
rclavicle 9.36773e-015 -5.56597e-015
rhumerus -33.1819 -3.86382 -88.3708
rradius 30.1488
rwrist -0.693195
rhand -18.525 -7.94857
rfingers 7.12502
rthumb 7.76363 -37.786
lclavicle 9.36773e-015 -5.56597e-015
lhumerus -30.7115 5.77327 82.4199
lradius 26.1703
lwrist 16.8615
lhand -17.811 12.9765
lfingers 7.12502
lthumb 8.45276 42.7874
rfemur 3.19958 4.7459 27.257
rtibia 38.5515
rfoot -16.9566 -4.56075
rtoes -7.6725
lfemur -10.9148 9.02759 -20.8519
ltibia 20.0346
lfoot -10.7309 -9.60531
ltoes 7.39906
1231
root -32.0574 16.9618 -4.88759 -393.12 85.0083 -393.162
lowerback -0.181595 -0.105778 2.33153
upperback 1.32442 -0.146015 -0.928548
thorax 1.45126 -0.0362238 -2.26168
lowerneck -7.77779 0.103702 2.289
upperneck 14.8611 -0.233501 1.3303
head 5.77176 0.17053 0.0300916
rclavicle 5.71506e-015 6.75868e-015
rhumerus -33.145 -3.75054 -88.4083
rradius 30.2614
rwrist -0.792031
rhand -18.4954 -7.97033
rfingers 7.12502
rthumb 7.79221 -37.8067
lclavicle 5.71506e-015 6.75868e-015
lhumerus -30.6452 5.71688 82.498
lradius 26.329
lwrist 16.8987
lhand -17.9036 13.1093
lfingers 7.12502
lthumb 8.36337 42.9237
rfemur 3.66053 4.49806 27.4515
rtibia 37.366
rfoot -17.5148 -4.58914
rtoes -7.20872
lfemur -11.3311 8.68961 -20.6923
ltibia 20.249
lfoot -10.3238 -9.21152
ltoes 8.05531
1232
root -32.1347 16.9657 -4.87921 -394.969 84.9481 -395.018
lowerback -0.135882 -0.0999649 2.55484
upperback 1.33857 -0.139928 -0.887609
thorax 1.44036 -0.0307563 -2.34494
lowerneck -7.79244 0.0900357 2.29666
upperneck 14.9175 -0.25345 1.33188
head 5.79189 0.162773 0.0280206
rclavicle -7.20594e-015 1.03368e-014
rhumerus -33.1193 -3.64575 -88.4397
rradius 30.3762
rwrist -0.880812
rhand -18.4764 -7.9577
rfingers 7.12502
rthumb 7.81057 -37.7934
lclavicle -7.20594e-015 1.03368e-014
lhumerus -30.5836 5.64617 82.5804
lradius 26.488
lwrist 16.9362
lhand -17.9901 13.2325
lfingers 7.12502
lthumb 8.2799 43.0503
rfemur 4.11259 4.27463 27.6636
rtibia 36.1727
rfoot -17.9795 -4.61171
rtoes -6.67107
lfemur -11.7788 8.32049 -20.5062
ltibia 20.5161
lfoot -9.92564 -8.77181
ltoes 8.68302
1233
root -32.2118 16.9729 -4.8702 -396.901 84.8677 -396.962
lowerback -0.0991528 -0.0884837 2.78528
upperback 1.35296 -0.126434 -0.839814
thorax 1.43529 -0.0214381 -2.42509
lowerneck -7.80215 0.0722239 2.31268
upperneck 14.9664 -0.280098 1.3343
head 5.80882 0.152158 0.0243291
rclavicle 2.98177e-016 1.35174e-014
rhumerus -33.0965 -3.55086 -88.4618
rradius 30.4915
rwrist -0.959883
rhand -18.4568 -7.91539
rfingers 7.12502
rthumb 7.82943 -37.7504
lclavicle 2.98177e-016 1.35174e-014
lhumerus -30.5208 5.573 82.665
lradius 26.6466
lwrist 16.9795
lhand -18.0527 13.3124
lfingers 7.12502
lthumb 8.21951 43.1325
rfemur 4.55418 4.09089 27.8975
rtibia 34.9606
rfoot -18.3386 -4.65647
rtoes -6.17638
lfemur -12.2986 7.97486 -20.3028
ltibia 20.8377
lfoot -9.48795 -8.30153
ltoes 9.1193
1234
root -32.2891 16.9827 -4.86021 -398.78 84.7632 -398.861
lowerback -0.07331 -0.0720031 3.00959
upperback 1.37414 -0.106459 -0.783383
thorax 1.44386 -0.00864095 -2.49287
lowerneck -7.82725 0.0550378 2.32891
upperneck 15.0081 -0.307348 1.34064
head 5.82617 0.141353 0.0217719
rclavicle -7.40473e-015 3.57812e-015
rhumerus -33.0606 -3.44909 -88.4781
rradius 30.606
rwrist -1.03204
rhand -18.4443 -7.83389
rfingers 7.12502
rthumb 7.84152 -37.6685
lclavicle -7.40473e-015 3.57812e-015
lhumerus -30.4452 5.50735 82.7509
lradius 26.8063
lwrist 17.0369
lhand -18.0855 13.3478
lfingers 7.12502
lthumb 8.18779 43.1691
rfemur 4.97618 3.9637 28.1556
rtibia 33.7409
rfoot -18.6003 -4.74572
rtoes -5.75261
lfemur -12.8777 7.67157 -20.0841
ltibia 21.2026
lfoot -9.00909 -7.81864
ltoes 9.43345
1235
root -32.3669 16.9943 -4.84899 -400.456 84.643 -400.562
lowerback -0.0474022 -0.0532527 3.20905
upperback 1.40013 -0.0831809 -0.720557
thorax 1.4577 0.00571389 -2.54005
lowerneck -7.86751 0.0434235 2.33845
upperneck 15.039 -0.328073 1.35422
head 5.84278 0.133577 0.0230392
rclavicle 7.95139e-016 4.77083e-015
rhumerus -33.0038 -3.34386 -88.4875
rradius 30.7042
rwrist -1.09272
rhand -18.4406 -7.72263
rfingers 7.12502
rthumb 7.84514 -37.5571
lclavicle 7.95139e-016 4.77083e-015
lhumerus -30.3617 5.45764 82.8349
lradius 26.9726
lwrist 17.1129
lhand -18.0757 13.3193
lfingers 7.12502
lthumb 8.19725 43.1403
rfemur 5.36534 3.90106 28.4299
rtibia 32.5394
rfoot -18.7885 -4.8959
rtoes -5.3873
lfemur -13.5 7.42819 -19.8647
ltibia 21.5883
lfoot -8.48353 -7.33932
ltoes 9.65016
1236
root -32.4459 17.0061 -4.83624 -401.845 84.5196 -401.977
lowerback -0.018189 -0.0310311 3.36698
upperback 1.42967 -0.0546942 -0.656912
thorax 1.47378 0.0223397 -2.56296
lowerneck -7.90604 0.0362715 2.35026
upperneck 15.0491 -0.343598 1.37082
head 5.85261 0.128186 0.0252148
rclavicle -3.37934e-015 5.1684e-015
rhumerus -32.9369 -3.23178 -88.4965
rradius 30.7963
rwrist -1.15281
rhand -18.4348 -7.61677
rfingers 7.12502
rthumb 7.85071 -37.451
lclavicle -3.37934e-015 5.1684e-015
lhumerus -30.2776 5.40117 82.921
lradius 27.1525
lwrist 17.2012
lhand -18.0702 13.3044
lfingers 7.12502
lthumb 8.20256 43.1252
rfemur 5.70184 3.90478 28.7135
rtibia 31.4072
rfoot -18.9441 -5.11056
rtoes -5.05121
lfemur -14.1289 7.2402 -19.6548
ltibia 21.9605
lfoot -7.92217 -6.87654
ltoes 9.82439
1237
root -32.5266 17.0161 -4.82191 -402.87 84.4059 -403.023
lowerback 0.0234556 -0.00782973 3.46821
upperback 1.46069 -0.0238174 -0.596459
thorax 1.48458 0.0394684 -2.55722
lowerneck -7.93763 0.0340732 2.35762
upperneck 15.0395 -0.352618 1.39419
head 5.8551 0.125742 0.0306913
rclavicle -9.44227e-016 -8.34896e-015
rhumerus -32.8651 -3.12257 -88.5038
rradius 30.8786
rwrist -1.20107
rhand -18.4265 -7.54141
rfingers 7.12502
rthumb 7.85867 -37.3753
lclavicle -9.44227e-016 -8.34896e-015
lhumerus -30.2037 5.33218 83.0085
lradius 27.3506
lwrist 17.3077
lhand -18.071 13.2894
lfingers 7.12502
lthumb 8.20178 43.1102
rfemur 5.96838 3.9723 28.995
rtibia 30.3926
rfoot -19.1018 -5.3918
rtoes -4.72626
lfemur -14.7249 7.09204 -19.4652
ltibia 22.2933
lfoot -7.34895 -6.44476
ltoes 10.0739
1238
root -32.6092 17.0227 -4.80619 -403.552 84.3227 -403.72
lowerback 0.0845604 0.0152138 3.5058
upperback 1.48761 0.00836489 -0.547565
thorax 1.48022 0.0562015 -2.5276
lowerneck -7.94869 0.0329967 2.36908
upperneck 15.0076 -0.360187 1.42016
head 5.84708 0.123941 0.0363768
rclavicle -1.02623e-014 3.97569e-015
rhumerus -32.8032 -3.0212 -88.5131
rradius 30.9593
rwrist -1.24964
rhand -18.4222 -7.4953
rfingers 7.12502
rthumb 7.86288 -37.3291
lclavicle -1.02623e-014 3.97569e-015
lhumerus -30.1478 5.23355 83.0945
lradius 27.5632
lwrist 17.4297
lhand -18.0903 13.29
lfingers 7.12502
lthumb 8.18315 43.1116
rfemur 6.15004 4.08126 29.257
rtibia 29.534
rfoot -19.2968 -5.71355
rtoes -4.31056
lfemur -15.2679 6.96302 -19.3103
ltibia 22.5721
lfoot -6.7806 -6.0491
ltoes 10.428
1239
root -32.6938 17.0259 -4.7893 -404 84.2669 -404.177
lowerback 0.168747 0.0363607 3.49281
upperback 1.5098 0.0395044 -0.509909
thorax 1.45782 0.0714433 -2.48118
lowerneck -7.94697 0.0319005 2.38791
upperneck 14.9602 -0.368267 1.44638
head 5.83196 0.12197 0.0408564
rclavicle -1.22501e-014 1.39149e-014
rhumerus -32.7478 -2.93353 -88.5263
rradius 31.033
rwrist -1.29414
rhand -18.4198 -7.49439
rfingers 7.12502
rthumb 7.8652 -37.3281
lclavicle -1.22501e-014 1.39149e-014
lhumerus -30.1127 5.10964 83.1737
lradius 27.7913
lwrist 17.5624
lhand -18.1078 13.2929
lfingers 7.12502
lthumb 8.16631 43.1151
rfemur 6.2493 4.22039 29.5065
rtibia 28.8305
rfoot -19.5412 -6.06811
rtoes -3.79018
lfemur -15.7628 6.84991 -19.1809
ltibia 22.8033
lfoot -6.22356 -5.69953
ltoes 10.8757
1240
root -32.7799 17.0252 -4.77164 -404.315 84.2344 -404.493
lowerback 0.272493 0.0550841 3.44712
upperback 1.52565 0.068531 -0.48382
thorax 1.41762 0.0848705 -2.42841
lowerneck -7.92138 0.0299818 2.41179
upperneck 14.8964 -0.377514 1.47609
head 5.80764 0.119624 0.0454912
rclavicle -1.71452e-015 6.75868e-015
rhumerus -32.7092 -2.86712 -88.5423
rradius 31.1049
rwrist -1.32408
rhand -18.4388 -7.50035
rfingers 7.12502
rthumb 7.84686 -37.3347
lclavicle -1.71452e-015 6.75868e-015
lhumerus -30.1053 4.95607 83.2436
lradius 28.0311
lwrist 17.6986
lhand -18.1339 13.3101
lfingers 7.12502
lthumb 8.14113 43.1333
rfemur 6.28468 4.37039 29.7459
rtibia 28.2566
rfoot -19.8302 -6.44729
rtoes -3.19021
lfemur -16.2125 6.74582 -19.0674
ltibia 23.0079
lfoot -5.69151 -5.39874
ltoes 11.4318
1241
root -32.8663 17.0241 -4.75344 -404.691 84.2254 -404.866
lowerback 0.391994 0.0658033 3.38485
upperback 1.53763 0.0875695 -0.463564
thorax 1.36384 0.0928573 -2.37252
lowerneck -7.89066 0.0272025 2.43487
upperneck 14.826 -0.388236 1.51063
head 5.78039 0.1167 0.0516551
rclavicle 1.78906e-014 -6.75868e-015
rhumerus -32.6735 -2.8234 -88.5566
rradius 31.1603
rwrist -1.33725
rhand -18.4721 -7.49797
rfingers 7.12502
rthumb 7.81471 -37.3335
lclavicle 1.78906e-014 -6.75868e-015
lhumerus -30.1192 4.78633 83.3045
lradius 28.2791
lwrist 17.8309
lhand -18.158 13.3145
lfingers 7.12502
lthumb 8.11784 43.1385
rfemur 6.27877 4.50405 29.9805
rtibia 27.7646
rfoot -20.1512 -6.83669
rtoes -2.4856
lfemur -16.6709 6.6667 -18.9663
ltibia 23.2131
lfoot -5.14015 -5.14192
ltoes 11.8603
1242
root -32.9526 17.0227 -4.73515 -405.284 84.2278 -405.454
lowerback 0.517374 0.0652481 3.3282
upperback 1.54927 0.0916379 -0.441727
thorax 1.3054 0.0933749 -2.31835
lowerneck -7.87004 0.0262527 2.45494
upperneck 14.7575 -0.396454 1.5448
head 5.75545 0.114778 0.0583805
rclavicle 1.06847e-014 1.47101e-014
rhumerus -32.6376 -2.78486 -88.5702
rradius 31.2068
rwrist -1.34012
rhand -18.5136 -7.49103
rfingers 7.12502
rthumb 7.77466 -37.3281
lclavicle 1.06847e-014 1.47101e-014
lhumerus -30.1467 4.6218 83.3554
lradius 28.5282
lwrist 17.947
lhand -18.1907 13.3285
lfingers 7.12502
lthumb 8.0863 43.1538
rfemur 6.25034 4.60233 30.2204
rtibia 27.3108
rfoot -20.4756 -7.23172
rtoes -1.76042
lfemur -17.1509 6.60861 -18.8604
ltibia 23.4399
lfoot -4.57542 -4.9322
ltoes 12.1412
1243
root -33.0388 17.0211 -4.71703 -406.176 84.2353 -406.347
lowerback 0.643367 0.0553759 3.29303
upperback 1.55646 0.0831571 -0.417249
thorax 1.24133 0.0877239 -2.27361
lowerneck -7.85049 0.0243211 2.46826
upperneck 14.6929 -0.405772 1.58386
head 5.73199 0.112387 0.0676808
rclavicle -1.49089e-015 3.57812e-015
rhumerus -32.611 -2.7578 -88.5806
rradius 31.2464
rwrist -1.33646
rhand -18.5561 -7.48206
rfingers 7.12502
rthumb 7.73362 -37.3206
lclavicle -1.49089e-015 3.57812e-015
lhumerus -30.1869 4.4554 83.3979
lradius 28.7707
lwrist 18.0455
lhand -18.2153 13.3304
lfingers 7.12502
lthumb 8.06255 43.1566
rfemur 6.21287 4.65786 30.4699
rtibia 26.8569
rfoot -20.7928 -7.61876
rtoes -0.974079
lfemur -17.6619 6.57037 -18.7418
ltibia 23.7011
lfoot -4.0072 -4.77029
ltoes 12.2786
